<svg xmlns="http://www.w3.org/2000/svg" width="95" height="160" viewBox="0 0 95 160">
  <path fill="#000000" fill-rule="evenodd" d="M8.7,62.28 L30.3,62.28 L30.3,73.8 L30.78,73.8 C33.6600144,68.999976 37.3933104,65.5066776 41.98,63.32 C46.5666896,61.1333224 51.259976,60.04 56.06,60.04 C62.1400304,60.04 67.1266472,60.8666584 71.02,62.52 C74.9133528,64.1733416 77.9799888,66.466652 80.22,69.4 C82.4600112,72.333348 84.0333288,75.9066456 84.94,80.12 C85.8466712,84.3333544 86.3,88.9999744 86.3,94.12 L86.3,145 L63.58,145 L63.58,98.28 C63.58,91.4532992 62.513344,86.3600168 60.38,83 C58.246656,79.6399832 54.4600272,77.96 49.02,77.96 C42.8333024,77.96 38.3533472,79.7999816 35.58,83.48 C32.8066528,87.1600184 31.42,93.2132912 31.42,101.64 L31.42,145 L8.7,145 L8.7,62.28 Z"/>
</svg>
