<svg xmlns="http://www.w3.org/2000/svg" width="98" height="160" viewBox="0 0 98 160">
  <path fill="#000000" fill-rule="evenodd" d="M67.48,103.4 C67.48,99.9866496 67.1600032,96.7066824 66.52,93.56 C65.8799968,90.4133176 64.7866744,87.640012 63.24,85.24 C61.6933256,82.839988 59.6933456,80.8933408 57.24,79.4 C54.7866544,77.9066592 51.693352,77.16 47.96,77.16 C44.226648,77.16 41.0800128,77.9066592 38.52,79.4 C35.9599872,80.8933408 33.9066744,82.8666544 32.36,85.32 C30.8133256,87.7733456 29.6933368,90.5733176 29,93.72 C28.3066632,96.8666824 27.96,100.14665 27.96,103.56 C27.96,106.760016 28.3333296,109.959984 29.08,113.16 C29.8266704,116.360016 31.0266584,119.213321 32.68,121.72 C34.3333416,124.226679 36.4133208,126.253326 38.92,127.8 C41.4266792,129.346674 44.4399824,130.12 47.96,130.12 C51.693352,130.12 54.8133208,129.373341 57.32,127.88 C59.8266792,126.386659 61.8266592,124.386679 63.32,121.88 C64.8133408,119.373321 65.8799968,116.520016 66.52,113.32 C67.1600032,110.119984 67.48,106.81335 67.48,103.4 Z M67.8,134.44 L67.48,134.44 C64.81332,138.920022 61.3200216,142.146657 57,144.12 C52.6799784,146.093343 47.8000272,147.08 42.36,147.08 C36.1733024,147.08 30.7333568,145.880012 26.04,143.48 C21.3466432,141.079988 17.4800152,137.826687 14.44,133.72 C11.3999848,129.613313 9.1066744,124.89336 7.56,119.56 C6.0133256,114.22664 5.24,108.680029 5.24,102.92 C5.24,97.3733056 6.0133256,92.0133592 7.56,86.84 C9.1066744,81.6666408 11.3999848,77.1066864 14.44,73.16 C17.4800152,69.2133136 21.2933104,66.040012 25.88,63.64 C30.4666896,61.239988 35.7999696,60.04 41.88,60.04 C46.7866912,60.04 51.4533112,61.0799896 55.88,63.16 C60.3066888,65.2400104 63.7999872,68.3066464 66.36,72.36 L66.68,72.36 L66.68,30.76 L89.4,30.76 L89.4,145 L67.8,145 L67.8,134.44 Z"/>
</svg>
