<svg xmlns="http://www.w3.org/2000/svg" width="92" height="160" viewBox="0 0 92 160">
  <path fill="#000000" fill-rule="evenodd" d="M7.76,87.72 C8.0800016,82.38664 9.4133216,77.9600176 11.76,74.44 C14.1066784,70.9199824 17.0933152,68.093344 20.72,65.96 C24.3466848,63.826656 28.426644,62.3066712 32.96,61.4 C37.493356,60.4933288 42.0533104,60.04 46.64,60.04 C50.8000208,60.04 55.013312,60.3333304 59.28,60.92 C63.546688,61.5066696 67.4399824,62.6533248 70.96,64.36 C74.4800176,66.0666752 77.3599888,68.4399848 79.6,71.48 C81.8400112,74.5200152 82.96,78.5466416 82.96,83.56 L82.96,126.6 C82.96,130.333352 83.1733312,133.90665 83.6,137.32 C84.0266688,140.73335 84.773328,143.293325 85.84,145 L62.8,145 C62.3733312,143.719994 62.026668,142.41334 61.76,141.08 C61.493332,139.74666 61.3066672,138.386674 61.2,137 C57.5733152,140.733352 53.3066912,143.346659 48.4,144.84 C43.4933088,146.333341 38.4800256,147.08 33.36,147.08 C29.4133136,147.08 25.7333504,146.600005 22.32,145.64 C18.9066496,144.679995 15.9200128,143.186677 13.36,141.16 C10.7999872,139.133323 8.8000072,136.573349 7.36,133.48 C5.9199928,130.386651 5.2,126.706688 5.2,122.44 C5.2,117.746643 6.0266584,113.880015 7.68,110.84 C9.3333416,107.799985 11.4666536,105.373342 14.08,103.56 C16.6933464,101.746658 19.6799832,100.386671 23.04,99.48 C26.4000168,98.5733288 29.7866496,97.853336 33.2,97.32 C36.6133504,96.786664 39.9733168,96.3600016 43.28,96.04 C46.5866832,95.7199984 49.5199872,95.2400032 52.08,94.6 C54.6400128,93.9599968 56.6666592,93.0266728 58.16,91.8 C59.6533408,90.5733272 60.3466672,88.7866784 60.24,86.44 C60.24,83.9866544 59.840004,82.0400072 59.04,80.6 C58.239996,79.1599928 57.17334,78.040004 55.84,77.24 C54.50666,76.439996 52.9600088,75.906668 51.2,75.64 C49.4399912,75.373332 47.5466768,75.24 45.52,75.24 C41.0399776,75.24 37.5200128,76.1999904 34.96,78.12 C32.3999872,80.0400096 30.9066688,83.2399776 30.48,87.72 L7.76,87.72 Z M60.24,104.52 C59.2799952,105.373338 58.0800072,106.039998 56.64,106.52 C55.1999928,107.000002 53.6533416,107.399998 52,107.72 C50.3466584,108.040002 48.6133424,108.306666 46.8,108.52 C44.9866576,108.733334 43.1733424,108.999998 41.36,109.32 C39.6533248,109.640002 37.9733416,110.066664 36.32,110.6 C34.6666584,111.133336 33.2266728,111.853329 32,112.76 C30.7733272,113.666671 29.7866704,114.813326 29.04,116.2 C28.2933296,117.586674 27.92,119.346656 27.92,121.48 C27.92,123.506677 28.2933296,125.213326 29.04,126.6 C29.7866704,127.986674 30.7999936,129.079996 32.08,129.88 C33.3600064,130.680004 34.8533248,131.239998 36.56,131.56 C38.2666752,131.880002 40.0266576,132.04 41.84,132.04 C46.3200224,132.04 49.7866544,131.293341 52.24,129.8 C54.6933456,128.306659 56.5066608,126.52001 57.68,124.44 C58.8533392,122.35999 59.573332,120.253344 59.84,118.12 C60.106668,115.986656 60.24,114.280006 60.24,113 L60.24,104.52 Z"/>
</svg>
