<svg xmlns="http://www.w3.org/2000/svg" width="63" height="160" viewBox="0 0 63 160">
  <path fill="#000000" fill-rule="evenodd" d="M9.02,62.28 L30.62,62.28 L30.62,77.64 L30.94,77.64 C32.006672,75.0799872 33.4466576,72.7066776 35.26,70.52 C37.0733424,68.3333224 39.1533216,66.4666744 41.5,64.92 C43.8466784,63.3733256 46.35332,62.1733376 49.02,61.32 C51.68668,60.4666624 54.4599856,60.04 57.34,60.04 C58.8333408,60.04 60.4866576,60.306664 62.3,60.84 L62.3,81.96 C61.233328,81.7466656 59.9533408,81.5600008 58.46,81.4 C56.9666592,81.2399992 55.5266736,81.16 54.14,81.16 C49.9799792,81.16 46.4600144,81.8533264 43.58,83.24 C40.6999856,84.6266736 38.3800088,86.519988 36.62,88.92 C34.8599912,91.320012 33.6066704,94.119984 32.86,97.32 C32.1133296,100.520016 31.74,103.986648 31.74,107.72 L31.74,145 L9.02,145 L9.02,62.28 Z"/>
</svg>
